<?xml version="1.0" encoding="UTF-8"?>
<svg id="Layer_2" data-name="Layer 2" xmlns="http://www.w3.org/2000/svg" viewBox="0 0 302.46 87.08">
  <defs>
    <style>
      .cls-1 {
        letter-spacing: .01em;
      }

      .cls-2 {
        fill: #e3212a;
      }

      .cls-2, .cls-3 {
        stroke-width: 0px;
      }

      .cls-4 {
        letter-spacing: -.02em;
      }

      .cls-5 {
        letter-spacing: 0em;
      }

      .cls-6 {
        letter-spacing: -.06em;
      }

      .cls-3 {
        fill: #f9f6f1;
      }

      .cls-7 {
        letter-spacing: -.08em;
      }

      .cls-8 {
        font-family: BaskOldFace, 'Baskerville Old Face';
        font-size: 60px;
        letter-spacing: .01em;
      }

      .cls-8, .cls-9 {
        fill: #fff;
      }

      .cls-9 {
        font-family: GillSansMT-Italic, 'Gill Sans MT';
        font-size: 24px;
        font-style: italic;
      }

      .cls-10 {
        letter-spacing: 0em;
      }
    </style>
  </defs>
  <g id="Layer_1-2" data-name="Layer 1">
    <g>
      <g>
        <path class="cls-2" d="m57.9,33.95c-.2,15.87-14.08,28.58-29.98,27.86C11.53,61.08-.11,47.69,0,32.71.12,16.81,13.39,3.69,29.39,3.96c16.47.28,29,13.59,28.52,29.99Zm-28.86,20.1c4.52-.06,8.31-.54,12.06-1.31,1.64-.34,3.2-.89,4.56-1.88,1.59-1.16,1.55-2.18-.16-3.23-1.22-.74-2.59-1.12-3.96-1.45-7.89-1.91-15.81-1.72-23.74-.27-1.88.34-3.71.95-5.31,2.04-1.4.95-1.38,1.6-.13,2.7.84.73,1.84,1.11,2.87,1.44,4.72,1.51,9.6,1.79,13.82,1.97Zm.2-10.88c1.25,0,2.5.1,3.74-.02,3.56-.33,7.11-.77,10.42-2.21.95-.41,2.21-.86,2.16-2.15-.04-1.16-1.26-1.38-2.14-1.8-2.82-1.34-5.89-1.72-8.92-2.1-6.34-.81-12.6-.33-18.69,1.66-1.32.43-3.11.86-3.02,2.49.09,1.51,1.82,1.97,3.18,2.37,4.33,1.28,8.76,1.85,13.27,1.75Zm.64-10.28c.73-.04,1.73-.06,2.72-.16,3.49-.34,6.92-.98,10.06-2.64,1.7-.89,1.67-1.89.03-2.89-1.74-1.06-3.72-1.44-5.65-1.9-6.9-1.65-13.7-1.24-20.33,1.31-1,.38-2.28.79-2.31,1.99-.03,1.26,1.31,1.63,2.28,2.01,4.15,1.63,8.49,2.29,13.21,2.27Zm-1.34-9.68c3.86.05,7.03-.6,10.07-1.78,1.03-.4,2.48-.8,2.46-2.16-.02-1.35-1.45-1.69-2.51-2.1-6.5-2.56-12.99-2.3-19.44.24-.81.32-1.86.49-1.92,1.68-.06,1.2.99,1.52,1.76,1.85,3.23,1.39,6.59,2.28,9.58,2.26Zm.07-8.92c2.59.12,4.94-.4,7.18-1.28,1.53-.6,1.72-1.64.47-2.25-4.64-2.26-9.38-2.53-14.08-.17-1.43.72-1.36,1.49.11,2.25,2.02,1.04,4.19,1.51,6.31,1.44Z"/>
        <path class="cls-3" d="m29.04,54.05c-4.21-.18-9.1-.46-13.82-1.97-1.03-.33-2.03-.7-2.87-1.44-1.25-1.1-1.27-1.75.13-2.7,1.6-1.08,3.42-1.69,5.31-2.04,7.93-1.45,15.85-1.64,23.74.27,1.37.33,2.74.71,3.96,1.45,1.71,1.05,1.76,2.07.16,3.23-1.36.99-2.92,1.55-4.56,1.88-3.75.77-7.53,1.24-12.06,1.31Z"/>
        <path class="cls-3" d="m29.24,43.17c-4.51.1-8.94-.48-13.27-1.75-1.36-.4-3.09-.86-3.18-2.37-.1-1.62,1.7-2.06,3.02-2.49,6.1-1.99,12.35-2.47,18.69-1.66,3.04.39,6.1.76,8.92,2.1.88.42,2.1.64,2.14,1.8.05,1.28-1.22,1.73-2.16,2.15-3.31,1.44-6.87,1.87-10.42,2.21-1.24.12-2.49.02-3.74.02Z"/>
        <path class="cls-3" d="m29.88,32.89c-4.72.02-9.06-.64-13.21-2.27-.97-.38-2.31-.76-2.28-2.01.03-1.21,1.32-1.61,2.31-1.99,6.64-2.55,13.43-2.96,20.33-1.31,1.93.46,3.91.85,5.65,1.9,1.64,1,1.67,1.99-.03,2.89-3.14,1.65-6.57,2.29-10.06,2.64-.99.1-1.99.12-2.72.16Z"/>
        <path class="cls-3" d="m28.54,23.21c-2.99.02-6.35-.87-9.58-2.26-.77-.33-1.82-.65-1.76-1.85.06-1.19,1.12-1.36,1.92-1.68,6.44-2.54,12.93-2.8,19.44-.24,1.06.42,2.49.75,2.51,2.1.02,1.35-1.43,1.76-2.46,2.16-3.04,1.18-6.21,1.83-10.07,1.78Z"/>
        <path class="cls-3" d="m28.61,14.29c-2.12.07-4.29-.4-6.31-1.44-1.47-.76-1.54-1.54-.11-2.25,4.7-2.36,9.44-2.09,14.08.17,1.25.61,1.06,1.65-.47,2.25-2.24.88-4.59,1.39-7.18,1.28Z"/>
      </g>
      <text class="cls-8" transform="translate(74.71 50.01)"><tspan x="0" y="0">CHUSEI</tspan></text>
      <text class="cls-9" transform="translate(157.35 80.35)"><tspan class="cls-1" x="0" y="0">L</tspan><tspan class="cls-7" x="10.25" y="0">O</tspan><tspan class="cls-4" x="24.07" y="0">Y</tspan><tspan class="cls-10" x="35.36" y="0">A</tspan><tspan class="cls-6" x="48.1" y="0">L</tspan><tspan class="cls-5" x="56.68" y="0">TY FIRST</tspan></text>
    </g>
  </g>
</svg>